<?xml version="1.0" encoding="utf-8"?>
<!DOCTYPE svg PUBLIC "-//W3C//DTD SVG 1.1//EN" "http://www.w3.org/Graphics/SVG/1.1/DTD/svg11.dtd" [
	<!ENTITY st0 "fill:#100F0D;">
]>
<svg version="1.1" id="Layer_1" xmlns="http://www.w3.org/2000/svg" xmlns:xlink="http://www.w3.org/1999/xlink" x="0px" y="0px"
	 viewBox="466 -13.9999 1628 1627.9999" style="enable-background:new 466 -13.9999 1628 1627.9999;" xml:space="preserve">
<g>
	<path style="&st0;" d="M1280,737.054c17.2264-23.0444,35.6414-39.4363,51.2769-58.7725
		c11.3184-13.7724,20.2554-30.8893,20.6353-54.6837c0.319-28.6146-7.0748-66.3955-22.5208-109.8282
		c-3.4404-9.7987-7.3163-19.781-11.1046-29.9229c-13.5085-11.1037-26.967-17.3651-38.2869-16.0537
		c-11.3201-1.3113-24.7786,4.9501-38.287,16.0537c-3.7883,10.1419-7.6642,20.1244-11.1046,29.9229
		c-15.4457,43.4327-22.8397,81.2135-22.5206,109.8282c0.3798,23.7942,9.3169,40.9112,20.6353,54.6837
		C1244.3585,697.6177,1262.7734,714.0096,1280,737.054z M1265.3176,543.6141c1.0624-19.3041,6.9031-42.4229,14.6824-65.4092
		c7.7793,22.9862,13.6199,46.1051,14.6824,65.4092c1.4701,20.6461-4.4192,34.1934-12.0547,42.7886
		c-0.8914,1.0083-1.7629,2.0696-2.6277,3.1509c-0.865-1.0814-1.7366-2.1426-2.6277-3.1509
		C1269.7367,577.8074,1263.8473,564.2602,1265.3176,543.6141z"/>
	<path style="&st0;" d="M1278.4473,456.1541c0.5168,0,1.0348,0.0896,1.5529,0.2218c0.5181-0.1323,1.0358-0.2218,1.5526-0.2218
		c0.4348,0,0.8763,0.0471,1.3127,0.1399c18.5461,4.2768,38.9908,18.4969,57.0289,31.0425
		c10.3029,7.1655,20.0337,13.9338,28.4061,18.1845c5.924,3.1598,10.6776,4.6958,14.5319,4.6958
		c7.5569,0,11.5242-6.0853,12.1279-18.6035c0.6372-2.1101-1.1096-8.5804-2.7994-14.8376c-0.5284-1.9572-1.075-3.9818-1.5375-5.8331
		c-0.7728-2.7879-1.5084-5.591-2.2196-8.3021c-1.7007-6.4805-3.4591-13.1814-6.0361-20.971l-0.0428-0.1298l-0.0797,0.1109
		c-1.0597,1.4701-2.4747,2.1848-4.324,2.1841c-2.7327,0-6.1172-1.5244-10.3579-3.8136c-0.4755-0.3161-0.9198-0.4784-1.3157-0.4784
		c-1.183,0-1.8057,1.3961-2.3022,2.9047c-1.452,4.0594-3.8608,6.0332-7.364,6.0332c-2.3632-0.0007-5.1613-0.8894-8.5552-2.7191
		c-11.0198-6.1339-24.9817-19.7459-39.7628-34.1574c-6.1217-5.968-12.4514-12.1396-18.6556-17.8452
		c-3.0665-2.8578-6.4443-5.7585-9.6075-7.3003c-3.1633,1.5418-6.541,4.4425-9.6077,7.3003
		c-6.2042,5.7056-12.5341,11.8773-18.6556,17.8452c-14.7811,14.4115-28.743,28.0233-39.7628,34.1574
		c-3.3939,1.8297-6.192,2.7184-8.5551,2.7191c-3.5034,0-5.9122-1.9739-7.364-6.0332c-0.4967-1.5085-1.1193-2.9047-2.3022-2.9047
		c-0.3959,0-0.8402,0.1624-1.3157,0.4784c-4.2406,2.2892-7.625,3.8136-10.358,3.8136c-1.8491,0.0007-3.264-0.714-4.324-2.1841
		l-0.0797-0.1109l-0.0427,0.1298c-2.5769,7.7896-4.3356,14.4904-6.0361,20.971c-0.7112,2.7111-1.4469,5.5142-2.2195,8.3021
		c-0.4625,1.8513-1.009,3.8759-1.5376,5.8331c-1.6896,6.2572-3.4365,12.7275-2.7994,14.8376
		c0.6038,12.518,4.571,18.6035,12.1279,18.6035c3.8542,0,8.608-1.5361,14.5319-4.6958c8.3724-4.2507,18.1034-11.019,28.4061-18.1845
		c18.038-12.5456,38.4827-26.7657,57.0288-31.0425C1277.5709,456.2013,1278.0123,456.1541,1278.4473,456.1541z"/>
	<path style="&st0;" d="M1115.6735,574.7076c9.416-25.021,19.2271-52.3302,31.339-81.7803
		c-2.5154,12.0346-6.4058,26.2408-9.7831,39.1181c-7.4847,27.9739-12.6986,51.2484-8.2543,56.1146
		c2.109-7.1226,3.8755-13.8841,5.9679-21.2595c10.371-36.2661,26.4651-85.1196,46.2144-140.7957
		c9.0404-1.0477,20.7585-4.3707,39.8014-28.9277c-10.3361,2.5429-14.5878-7.4286-15.0831-25.7863
		c6.4214-5.2526,14.3497-13.891,23.6193-27.9316c-10.9934-4.5641-9.1089-40.9005-0.8906-89.4928
		c5.3353-31.7908,12.9412-69.4579,22.3484-111.2146c4.809-21.3435,10.0875-43.7338,15.7954-66.8787
		c2.8822-11.6863,5.8721-23.5561,8.9659-35.5676c1.4052-5.4553,2.8385-10.9465,4.2859-16.4535
		c1.4473,5.5069,2.8805,10.9982,4.2858,16.4535c3.0939,12.0115,6.0837,23.8814,8.9659,35.5676
		c5.708,23.1449,10.9865,45.5351,15.7954,66.8787c9.4072,41.7567,17.0132,79.4239,22.3485,111.2146
		c8.2181,48.5921,10.1027,84.9287-0.8907,89.4928c9.2694,14.0406,17.1979,22.6791,23.6193,27.9316
		c-0.4952,18.3577-4.7469,28.3293-15.083,25.7863c19.0426,24.557,30.7609,27.88,39.8011,28.9277
		c19.7494,55.6761,35.8434,104.5297,46.2145,140.7957c2.0923,7.3754,3.8589,14.137,5.9679,21.2595
		c4.4442-4.8663-0.7695-28.1407-8.2543-56.1146c-3.3773-12.8773-7.2677-27.0834-9.7831-39.1181
		c12.1119,29.4501,21.9231,56.7593,31.3389,81.7804c-5.6597-23.7227-17.3914-60.9006-32.319-104.8856
		c-3.339-9.7113-6.6494-19.5081-9.6495-29.0558c8.8495,20.2643,17.1613,42.8367,25.401,64.2928
		c-13.918-50.8495-38.9768-126.264-62.827-198.9994c5.5342,12.0594,11.4517,27.1785,17.2805,42.0832
		c-20.7139-68.7604-43.5979-142.5038-66.5234-216.4685c-10.7942-35.1369-22.0408-68.5892-32.7495-104.2483
		c-0.9797-2.8015-1.9596-5.603-2.9395-8.4046c-0.9799,2.8016-1.9598,5.6032-2.9395,8.4046
		c-10.7086,35.6591-21.9553,69.1115-32.7496,104.2483c-22.9253,73.9648-45.8094,147.7081-66.5233,216.4685
		c5.8285-14.9047,11.7461-30.0239,17.2804-42.0832c-23.8501,72.7354-48.9091,148.15-62.8268,198.9994
		c8.2396-21.4562,16.5514-44.0287,25.401-64.2928c-3.0004,9.5477-6.3108,19.3445-9.6498,29.0558
		C1133.0649,513.8069,1121.3333,550.9849,1115.6735,574.7076z"/>
	<path style="&st0;" d="M1120.5745,657.0214c2.4851,4.1381,11.2709,3.8611,19.8351,3.3997c0.0033-0.0004,0.0071-0.0006,0.0105-0.001
		c0.0004-0.0034,0.0006-0.0072,0.001-0.0106c0.4614-8.564,0.7383-17.3499-3.3997-19.835c-0.6615,4.4795-1.5283,9.1108-2.6,13.847
		C1129.6852,655.493,1125.0538,656.3599,1120.5745,657.0214z"/>
	<path style="&st0;" d="M1185.3401,537.99c-9.9401-9.48-27.8801-3.27-47.7001,21.01c15.9301-10.38,29.5399-1.0601,30.23,28.14
		c0.83,23.51-4.76,54.09-16.6901,84.04c-29.95,11.93-60.5299,17.52-84.0399,16.69c-29.2001-0.69-38.52-14.3-28.14-30.22
		c-24.28,19.81-30.49,37.75-21.01,47.69c16.64,17.02,62.03,18.09,112.02,10.08c18.01-2.88,35.99-6.94,53.03-12.38
		c5.4399-17.04,9.5-35.02,12.3799-53.03C1203.4299,600.02,1202.36,554.63,1185.3401,537.99z M1182.95,627.02
		c-1.6599,20.02-6.51,41.79-13.23,62.7c-20.9099,6.72-42.6799,11.57-62.7,13.23c-6.53,0.42-13.39,0.85-16.8-1.39
		c23.3101-4.61,47.3301-12.47,69.71-21.63c4.5801-11.19,8.8301-22.79,12.52-34.51c3.6901-11.71,6.8101-23.54,9.1101-35.2
		C1183.8,613.63,1183.37,620.49,1182.95,627.02z"/>
	<path style="&st0;" d="M1521,657.64c10.38,15.93,1.0601,29.54-28.14,30.23c-23.51,0.83-54.09-4.76-84.0399-16.69
		c-11.9301-29.95-17.52-60.53-16.6901-84.04c0.6901-29.2001,14.2999-38.52,30.23-28.14c-19.8099-24.28-37.76-30.49-47.7001-21.01
		c-17.0199,16.64-18.0898,62.03-10.0798,112.02c2.8799,18.01,6.9399,35.99,12.3799,53.03c17.04,5.44,35.02,9.5,53.03,12.38
		c49.99,8.01,95.38,6.94,112.02-10.08C1551.49,695.4,1545.28,677.46,1521,657.64z M1452.98,702.95
		c-20.02-1.66-41.79-6.51-62.7-13.23c-6.72-20.91-11.5701-42.68-13.23-62.7c-0.42-6.53-0.8501-13.39,1.3899-16.8
		c4.6101,23.3101,12.47,47.33,21.6301,69.71c11.1899,4.58,22.7899,8.83,34.51,12.52c11.71,3.69,23.5399,6.81,35.2,9.11
		C1466.37,703.8,1459.51,703.37,1452.98,702.95z"/>
	<path style="&st0;" d="M1456.4022,728.0877c-23.7942,0.3798-40.9113,9.317-54.6837,20.6353
		c-19.3362,15.6356-35.7281,34.0504-58.7726,51.2769c23.0443,17.2265,39.4364,35.6414,58.7726,51.2769
		c13.7723,11.3183,30.8896,20.2554,54.6837,20.6353c28.6146,0.3189,66.3953-7.075,109.8281-22.5209
		c9.7987-3.4403,19.7811-7.3162,29.9231-11.1046c11.1038-13.5085,17.3651-26.967,16.0537-38.2869
		c1.3114-11.32-4.95-24.7786-16.0537-38.2869c-10.142-3.7883-20.1244-7.6642-29.9231-11.1046
		C1522.7975,735.1625,1485.0168,727.7687,1456.4022,728.0877z M1601.7952,799.9999c-22.9863,7.7793-46.1052,13.6199-65.4093,14.6824
		c-20.646,1.4702-34.1932-4.4191-42.7886-12.0547c-1.0083-0.8912-2.0696-1.7629-3.1508-2.6277
		c1.0812-0.8649,2.1425-1.7366,3.1508-2.6277c8.5953-7.6356,22.1426-13.5249,42.7886-12.0547
		C1555.6899,786.3801,1578.8088,792.2208,1601.7952,799.9999z"/>
	<path style="&st0;" d="M1638.3492,697.7549l0.111-0.0797l-0.1298-0.0428c-7.7896-2.5769-14.4905-4.3356-20.9708-6.0361
		c-2.7112-0.7112-5.5143-1.4469-8.3022-2.2195c-1.8513-0.4625-3.8759-1.009-5.833-1.5375
		c-6.2573-1.6896-12.7277-3.4366-14.8378-2.7994c-12.5181,0.6038-18.6035,4.571-18.6035,12.128c0,3.8542,1.536,8.608,4.6958,14.5318
		c4.2507,8.3724,11.019,18.1033,18.1846,28.4061c12.5455,18.038,26.7656,38.4827,31.0425,57.0289
		c0.0928,0.4363,0.1399,0.8778,0.1399,1.3127c0,0.5168-0.0895,1.0347-0.2218,1.5527c0.1323,0.5181,0.2218,1.0358,0.2218,1.5526
		c0,0.4349-0.0471,0.8763-0.1399,1.3127c-4.2769,18.5462-18.4969,38.9909-31.0425,57.0291
		c-7.1655,10.3028-13.9338,20.0336-18.1846,28.4061c-3.1598,5.9239-4.6958,10.6777-4.6958,14.5318
		c0,7.5569,6.0854,11.5242,18.6035,12.128c2.1101,0.6372,8.5804-1.1097,14.8378-2.7995c1.9572-0.5284,3.9817-1.0749,5.833-1.5375
		c2.788-0.7727,5.5911-1.5084,8.3022-2.2196c6.4803-1.7006,13.1813-3.459,20.9708-6.0361l0.1298-0.0428l-0.111-0.0797
		c-1.47-1.0597-2.1847-2.4748-2.184-4.324c0-2.7327,1.5244-6.1172,3.8136-10.3579c0.316-0.4754,0.4784-0.9199,0.4784-1.3157
		c0-1.183-1.3961-1.8057-2.9045-2.3022c-4.0594-1.452-6.0333-3.8608-6.0333-7.3641c0.0009-2.3632,0.8894-5.1613,2.7191-8.5551
		c6.1339-11.0198,19.7458-24.9818,34.1573-39.7629c5.968-6.1216,12.1396-12.4514,17.8452-18.6556
		c2.8578-3.0666,5.7584-6.4443,7.3003-9.6075c-1.5419-3.1634-4.4425-6.541-7.3003-9.6077
		c-5.7056-6.2043-11.8772-12.5341-17.8452-18.6556c-14.4115-14.7812-28.0234-28.7431-34.1573-39.7629
		c-1.8297-3.3939-2.7183-6.192-2.7191-8.5551c0-3.5034,1.9739-5.9122,6.0333-7.364c1.5084-0.4966,2.9045-1.1193,2.9045-2.3022
		c0-0.3958-0.1624-0.8401-0.4784-1.3157c-2.2892-4.2406-3.8136-7.625-3.8136-10.358
		C1636.1646,700.2296,1636.8793,698.8146,1638.3492,697.7549z"/>
	<path style="&st0;" d="M2052.574,797.0605c-35.6592-10.7086-69.1116-21.9553-104.2484-32.7496
		c-73.9647-22.9254-147.7081-45.8094-216.4685-66.5234c14.9047,5.8286,30.0238,11.7462,42.0833,17.2805
		c-72.7355-23.8501-148.15-48.9091-198.9994-62.8268c21.4561,8.2397,44.0287,16.5515,64.2928,25.401
		c-9.5477-3.0003-19.3445-6.3107-29.0558-9.6497c-43.985-14.9275-81.163-26.6594-104.8857-32.319
		c25.0212,9.416,52.3304,19.227,81.7805,31.3389c-12.0348-2.5153-26.2408-6.4058-39.1182-9.783
		c-27.974-7.4848-51.2482-12.6986-56.1145-8.2543c7.1224,2.1091,13.884,3.8755,21.2595,5.968
		c36.266,10.371,85.1195,26.4651,140.7955,46.2144c1.0477,9.0403,4.3707,20.7585,28.9277,39.8013
		c-2.543-10.336,7.4286-14.5878,25.7863-15.0831c5.2527,6.4214,13.8911,14.3498,27.9318,23.6193
		c4.5641-10.9935,40.9005-9.1089,89.4927-0.8907c31.7908,5.3353,69.458,12.9412,111.2147,22.3484
		c21.3435,4.809,43.7338,10.0876,66.8785,15.7955c11.6863,2.8821,23.5562,5.8721,35.5676,8.9659
		c5.4553,1.4052,10.9467,2.8384,16.4535,4.2858c-5.5068,1.4474-10.9982,2.8806-16.4535,4.2858
		c-12.0115,3.0938-23.8813,6.0837-35.5676,8.9659c-23.1448,5.708-45.535,10.9865-66.8785,15.7955
		c-41.7567,9.4072-79.424,17.0131-111.2147,22.3484c-48.5922,8.2182-84.9286,10.1027-89.4927-0.8907
		c-14.0406,9.2693-22.6791,17.1979-27.9318,23.6193c-18.3577-0.4953-28.3292-4.7471-25.7863-15.0831
		c-24.557,19.0427-27.88,30.7609-28.9277,39.8012c-55.676,19.7493-104.5295,35.8434-140.7955,46.2144
		c-7.3755,2.0923-14.1371,3.8589-21.2595,5.968c4.8663,4.4443,28.1405-0.7695,56.1145-8.2543
		c12.8773-3.3773,27.0834-7.2677,39.1182-9.783c-29.4501,12.1119-56.7593,21.923-81.7805,31.3389
		c23.7228-5.6596,60.9008-17.3914,104.8857-32.319c9.7113-3.339,19.5081-6.6494,29.0558-9.6496
		c-20.2642,8.8495-42.8368,17.1613-64.2928,25.401c50.8494-13.9179,126.2639-38.9767,198.9994-62.827
		c-12.0594,5.5342-27.1786,11.4517-42.0833,17.2805c68.7604-20.7138,142.5038-43.5979,216.4685-66.5234
		c35.1368-10.7943,68.5892-22.0408,104.2484-32.7496c2.8015-0.9797,5.603-1.9595,8.4048-2.9395
		C2058.177,799.0202,2055.3755,798.0403,2052.574,797.0605z"/>
	<path style="&st0;" d="M1419.5789,660.4094c0.0005,0.0034,0.0007,0.0072,0.0011,0.0106c0.0034,0.0004,0.0073,0.0007,0.0105,0.001
		c8.5642,0.4614,17.35,0.7383,19.8351-3.3997c-4.4795-0.6614-9.1107-1.5284-13.847-2.6c-1.0714-4.7362-1.9385-9.3676-2.5999-13.847
		C1418.8406,643.0596,1419.1176,651.8454,1419.5789,660.4094z"/>
	<path style="&st0;" d="M1280,862.9459c-17.2267,23.0444-35.6415,39.4364-51.277,58.7725
		c-11.3182,13.7725-20.2555,30.8895-20.6353,54.6837c-0.3191,28.6146,7.075,66.3954,22.5206,109.8281
		c3.4404,9.7987,7.3163,19.7811,11.1046,29.9231c13.5084,11.1038,26.967,17.3651,38.287,16.0537
		c11.3199,1.3114,24.7784-4.95,38.2869-16.0537c3.7882-10.142,7.6642-20.1244,11.1046-29.9231
		c15.4458-43.4326,22.8397-81.2134,22.5208-109.8281c-0.3798-23.7942-9.317-40.9112-20.6353-54.6837
		C1315.6414,902.3823,1297.2264,885.9904,1280,862.9459z M1294.6824,1056.386c-1.0625,19.3041-6.9031,42.4229-14.6824,65.4091
		c-7.7793-22.9862-13.62-46.105-14.6824-65.4091c-1.4703-20.6461,4.4191-34.1935,12.0547-42.7888
		c0.8912-1.0081,1.7628-2.0695,2.6277-3.1508c0.8647,1.0813,1.7363,2.1427,2.6277,3.1508
		C1290.2633,1022.1925,1296.1526,1035.7399,1294.6824,1056.386z"/>
	<path style="&st0;" d="M1281.5527,1143.8458c-0.5168,0-1.0347-0.0896-1.5526-0.2218c-0.5182,0.1322-1.0359,0.2218-1.5529,0.2218
		c-0.4348,0-0.8763-0.0471-1.3127-0.1399c-18.5461-4.2769-38.9908-18.4969-57.0288-31.0425
		c-10.3029-7.1655-20.0337-13.9338-28.4061-18.1846c-5.9238-3.1598-10.6776-4.6958-14.5319-4.6958
		c-7.5569,0-11.5242,6.0854-12.1279,18.6035c-0.6371,2.1101,1.1099,8.5804,2.7994,14.8376
		c0.5286,1.9573,1.0751,3.9818,1.5376,5.8331c0.7726,2.788,1.5084,5.5911,2.2195,8.3021
		c1.7006,6.4805,3.4591,13.1814,6.0361,20.9709l0.0427,0.1298l0.0798-0.111c1.0597-1.47,2.4747-2.1847,4.3239-2.184
		c2.7328,0,6.1173,1.5243,10.358,3.8135c0.4755,0.3162,0.9198,0.4785,1.3157,0.4785c1.183,0,1.8057-1.3961,2.3022-2.9045
		c1.4518-4.0594,3.8607-6.0333,7.364-6.0333c2.3632,0.0009,5.1613,0.8894,8.5551,2.7191
		c11.0197,6.1339,24.9817,19.7458,39.7628,34.1573c6.1217,5.9679,12.4514,12.1396,18.6556,17.8452
		c3.0667,2.8578,6.4443,5.7584,9.6077,7.3003c3.1633-1.5419,6.541-4.4425,9.6075-7.3003
		c6.2042-5.7056,12.5341-11.8773,18.6556-17.8452c14.7811-14.4115,28.743-28.0234,39.7628-34.1573
		c3.3939-1.8297,6.192-2.7183,8.5552-2.7191c3.5033,0,5.9121,1.9739,7.364,6.0333c0.4966,1.5084,1.1191,2.9045,2.3022,2.9045
		c0.3959,0,0.8402-0.1624,1.3157-0.4785c4.2406-2.2892,7.6251-3.8135,10.3579-3.8135c1.8492-0.0007,3.2642,0.714,4.324,2.184
		l0.0797,0.111l0.0428-0.1298c2.5769-7.7896,4.3356-14.4905,6.0361-20.9709c0.7112-2.7111,1.4469-5.5142,2.2196-8.3021
		c0.4624-1.8513,1.009-3.8759,1.5375-5.8331c1.6898-6.2572,3.4366-12.7275,2.7994-14.8376
		c-0.6038-12.5181-4.571-18.6035-12.1279-18.6035c-3.8542,0-8.608,1.536-14.5319,4.6958
		c-8.3724,4.2507-18.1033,11.019-28.4061,18.1846c-18.038,12.5455-38.4827,26.7656-57.0289,31.0425
		C1282.4291,1143.7987,1281.9875,1143.8458,1281.5527,1143.8458z"/>
	<path style="&st0;" d="M1444.3264,1025.2922c-9.4158,25.0211-19.2271,52.3304-31.3389,81.7804
		c2.5154-12.0347,6.4058-26.2408,9.7831-39.118c7.4847-27.9739,12.6985-51.2482,8.2543-56.1146
		c-2.1091,7.1226-3.8756,13.8841-5.9679,21.2595c-10.371,36.2661-26.4651,85.1196-46.2145,140.7957
		c-9.0404,1.0477-20.7585,4.3707-39.8011,28.9277c10.3359-2.543,14.5878,7.4286,15.083,25.7863
		c-6.4214,5.2527-14.3497,13.8911-23.6193,27.9318c10.9934,4.5641,9.1089,40.9005,0.8907,89.4927
		c-5.3353,31.7908-12.9413,69.458-22.3485,111.2146c-4.809,21.3435-10.0874,43.7339-15.7954,66.8787
		c-2.8821,11.6863-5.8721,23.5562-8.9659,35.5676c-1.4053,5.4553-2.8385,10.9465-4.2858,16.4535
		c-1.4475-5.507-2.8807-10.9982-4.2859-16.4535c-3.0938-12.0115-6.0839-23.8813-8.9659-35.5676
		c-5.7079-23.1448-10.9865-45.5352-15.7954-66.8787c-9.4072-41.7566-17.0131-79.4238-22.3485-111.2146
		c-8.2181-48.5922-10.1025-84.9286,0.8907-89.4927c-9.2694-14.0406-17.1979-22.6791-23.6193-27.9318
		c0.4952-18.3577,4.7471-28.3292,15.0831-25.7863c-19.0428-24.557-30.761-27.88-39.8014-28.9277
		c-19.7494-55.676-35.8434-104.5295-46.2145-140.7957c-2.0923-7.3754-3.8589-14.1369-5.9679-21.2595
		c-4.4442,4.8663,0.7694,28.1407,8.2543,56.1146c3.3773,12.8772,7.2678,27.0834,9.7831,39.118
		c-12.1119-29.45-21.923-56.7593-31.3389-81.7804c5.6597,23.7228,17.3915,60.9008,32.319,104.8856
		c3.339,9.7114,6.6494,19.5082,9.6498,29.0558c-8.8497-20.264-17.1614-42.8365-25.401-64.2928
		c13.9177,50.8495,38.9767,126.264,62.8268,198.9995c-5.5342-12.0594-11.4517-27.1786-17.2804-42.0833
		c20.7137,68.7604,43.5978,142.5038,66.5233,216.4685c10.7943,35.1368,22.0409,68.5892,32.7495,104.2483
		c0.9799,2.8016,1.9596,5.603,2.9396,8.4048c0.9799-2.8018,1.9597-5.6031,2.9395-8.4048
		c10.7087-35.6591,21.9552-69.1115,32.7495-104.2483c22.9254-73.9647,45.8094-147.7081,66.5233-216.4685
		c-5.8285,14.9047-11.7461,30.0238-17.2804,42.0833c23.8502-72.7355,48.9091-148.15,62.827-198.9995
		c-8.2397,21.4563-16.5515,44.0288-25.4011,64.2928c3.0002-9.5476,6.3107-19.3444,9.6497-29.0558
		C1426.9351,1086.193,1438.6667,1049.015,1444.3264,1025.2922z"/>
	<path style="&st0;" d="M1439.4255,942.9786c-2.485-4.1381-11.2709-3.861-19.835-3.3997c-0.0033,0.0004-0.0071,0.0007-0.0105,0.0011
		c-0.0005,0.0034-0.0007,0.0072-0.0011,0.0106c-0.4614,8.564-0.7384,17.3499,3.3997,19.8349
		c0.6615-4.4793,1.5284-9.1107,2.5999-13.8469C1430.3148,944.507,1434.946,943.64,1439.4255,942.9786z"/>
	<path style="&st0;" d="M1542.01,894.66c-16.64-17.02-62.03-18.09-112.02-10.08c-18.01,2.88-35.99,6.94-53.03,12.38
		c-5.4399,17.04-9.5,35.02-12.3799,53.03c-8.01,49.99-6.9401,95.38,10.0798,112.02c9.9401,9.48,27.8801,3.27,47.6901-21.01
		c-15.92,10.38-29.5299,1.0599-30.22-28.14c-0.83-23.51,4.76-54.09,16.6901-84.04c29.95-11.92,60.5299-17.52,84.0399-16.69
		c29.2001,0.69,38.52,14.3,28.14,30.22C1545.28,922.54,1551.49,904.6,1542.01,894.66z M1400.0701,920.07
		c-4.5801,11.19-8.8301,22.79-12.52,34.51c-3.6901,11.71-6.8101,23.54-9.1101,35.2c-2.24-3.41-1.8099-10.27-1.3899-16.8
		c1.6599-20.02,6.51-41.79,13.23-62.7c20.9099-6.72,42.6799-11.57,62.7-13.23c6.53-0.42,13.39-0.85,16.8,1.39
		C1446.47,903.05,1422.45,910.91,1400.0701,920.07z"/>
	<path style="&st0;" d="M1379.6599,748.69c-9.8099-6.62-19.3499-13.26-28.71-19.64c-6.3799-9.36-13.02-18.9-19.6399-28.71
		C1315.63,718.91,1297.6699,736.08,1280,755.85c-17.6699-19.77-35.63-36.94-51.3101-55.5099c-6.6199,9.81-13.26,19.35-19.6399,28.71
		c-9.3601,6.38-18.9,13.02-28.71,19.64c18.5698,15.68,35.74,33.64,55.5099,51.31c-19.7699,17.67-36.9401,35.63-55.5099,51.31
		c9.8099,6.62,19.3499,13.26,28.71,19.64c6.3799,9.36,13.02,18.9,19.6399,28.71C1244.37,881.09,1262.3301,863.92,1280,844.15
		c17.6699,19.77,35.63,36.94,51.3101,55.5099c6.6199-9.81,13.26-19.35,19.6399-28.71c9.3601-6.38,18.9-13.02,28.71-19.64
		c-18.5698-15.68-35.74-33.64-55.5099-51.31C1343.9199,782.33,1361.0901,764.37,1379.6599,748.69z M1280,838.93
		c-4.49-8.54-8.88-17.29-12.4-26.53c-9.24-3.52-17.99-7.91-26.5299-12.4c8.5399-4.49,17.2899-8.88,26.5299-12.4
		c3.52-9.24,7.91-17.99,12.4-26.53c4.49,8.54,8.88,17.29,12.4,26.53c9.24,3.52,17.99,7.91,26.5299,12.4
		c-8.5399,4.49-17.2899,8.88-26.5299,12.4C1288.88,821.64,1284.49,830.39,1280,838.93z"/>
	<path style="&st0;" d="M1103.5978,871.9123c23.7942-0.3799,40.9113-9.3171,54.6837-20.6354
		c19.3361-15.6356,35.7281-34.0504,58.7725-51.2769c-23.0443-17.2266-39.4364-35.6414-58.7726-51.2769
		c-13.7723-11.3183-30.8894-20.2555-54.6836-20.6353c-28.6147-0.319-66.3954,7.075-109.8282,22.5208
		c-9.7987,3.4403-19.7811,7.3162-29.9231,11.1046c-11.1036,13.5084-17.3649,26.967-16.0536,38.2869
		c-1.3113,11.32,4.9501,24.7785,16.0536,38.2869c10.1421,3.7882,20.1245,7.6642,29.9231,11.1046
		C1037.2025,864.8373,1074.9832,872.2312,1103.5978,871.9123z M958.2048,799.9999c22.9863-7.7793,46.1053-13.6199,65.4093-14.6824
		c20.646-1.4703,34.1932,4.4191,42.7886,12.0547c1.0083,0.8912,2.0695,1.7629,3.1506,2.6277
		c-1.0812,0.8647-2.1422,1.7365-3.1506,2.6277c-8.5953,7.6356-22.1426,13.5249-42.7886,12.0547
		C1004.3101,813.6198,981.1912,807.7793,958.2048,799.9999z"/>
	<path style="&st0;" d="M921.6506,902.2451l-0.1109,0.0797l0.1298,0.0428c7.7896,2.5769,14.4905,4.3356,20.971,6.0361
		c2.7111,0.7112,5.5142,1.4469,8.3021,2.2196c1.8514,0.4625,3.8759,1.0091,5.8331,1.5375
		c6.2572,1.6898,12.7275,3.4367,14.8376,2.7995c12.5181-0.6038,18.6035-4.571,18.6035-12.128c0-3.8542-1.5361-8.608-4.6957-14.5318
		c-4.2507-8.3724-11.019-18.1032-18.1845-28.4061c-12.5456-18.038-26.7657-38.4827-31.0425-57.0291
		c-0.0928-0.4363-0.1399-0.8778-0.1399-1.3127c0-0.5168,0.0896-1.0345,0.2218-1.5526c-0.1323-0.5181-0.2218-1.0358-0.2218-1.5527
		c0-0.4349,0.0472-0.8763,0.1399-1.3127c4.2768-18.5462,18.4969-38.9909,31.0425-57.0289
		c7.1655-10.3028,13.9338-20.0336,18.1845-28.4061c3.1597-5.9238,4.6957-10.6777,4.6957-14.5318
		c0-7.5569-6.0853-11.5242-18.6035-12.128c-2.1101-0.6371-8.5804,1.1098-14.8376,2.7994c-1.9572,0.5285-3.9818,1.0751-5.8331,1.5375
		c-2.7878,0.7726-5.591,1.5085-8.3021,2.2195c-6.4805,1.7006-13.1814,3.459-20.971,6.0361l-0.1298,0.0428l0.1109,0.0797
		c1.4701,1.0597,2.1848,2.4747,2.1841,4.3239c0,2.7328-1.5245,6.1174-3.8137,10.358c-0.316,0.4755-0.4784,0.9199-0.4784,1.3157
		c0,1.183,1.3961,1.8057,2.9047,2.3022c4.0594,1.4518,6.0332,3.8608,6.0332,7.364c-0.0007,2.3632-0.8894,5.1613-2.7191,8.5551
		c-6.1339,11.0197-19.7458,24.9816-34.1573,39.7629c-5.968,6.1216-12.1396,12.4514-17.8453,18.6556
		c-2.8578,3.0666-5.7584,6.4443-7.3003,9.6077c1.5418,3.1633,4.4425,6.541,7.3003,9.6075
		c5.7056,6.2042,11.8773,12.5341,17.8453,18.6556c14.4115,14.7812,28.0233,28.7431,34.1573,39.7629
		c1.8297,3.3939,2.7184,6.192,2.7191,8.5551c0,3.5034-1.9739,5.9122-6.0332,7.3641c-1.5084,0.4966-2.9047,1.1192-2.9047,2.3022
		c0,0.3958,0.1624,0.8403,0.4784,1.3157c2.2892,4.2405,3.8137,7.6251,3.8137,10.358
		C923.8355,899.7703,923.1207,901.1853,921.6506,902.2451z"/>
	<path style="&st0;" d="M906.1048,898.8425c-1.0477-9.0403-4.3707-20.7585-28.9277-39.8012
		c2.5429,10.3359-7.4286,14.5878-25.7863,15.0831c-5.2526-6.4214-13.8909-14.3498-27.9316-23.6193
		c-4.5641,10.9935-40.9006,9.1089-89.4928,0.8907c-31.7908-5.3353-69.4579-12.9412-111.2146-22.3484
		c-21.3436-4.809-43.7338-10.0874-66.8787-15.7954c-11.6863-2.8821-23.5561-5.8721-35.5676-8.9659
		c-5.4553-1.4052-10.9465-2.8384-16.4535-4.2859c5.507-1.4475,10.9982-2.8807,16.4535-4.2858
		c12.0115-3.0938,23.8813-6.0839,35.5676-8.9659c23.1448-5.7079,45.5351-10.9865,66.8787-15.7955
		c41.7567-9.4072,79.4239-17.0131,111.2146-22.3484c48.5922-8.2182,84.9287-10.1027,89.4928,0.8907
		c14.0406-9.2694,22.6791-17.1979,27.9316-23.6193c18.3577,0.4953,28.3293,4.7471,25.7863,15.0831
		c24.557-19.0428,27.8801-30.7609,28.9277-39.8013c55.6761-19.7493,104.5295-35.8434,140.7956-46.2144
		c7.3755-2.0923,14.1371-3.8589,21.2595-5.968c-4.8662-4.4443-28.1406,0.7694-56.1146,8.2543
		c-12.8773,3.3773-27.0834,7.2678-39.1182,9.7831c29.4501-12.1119,56.7593-21.923,81.7805-31.3389
		c-23.7227,5.6596-60.9006,17.3915-104.8856,32.319c-9.7113,3.339-19.5081,6.6494-29.0557,9.6497
		c20.2642-8.8497,42.8367-17.1613,64.2927-25.401c-50.8495,13.9178-126.264,38.9767-198.9993,62.8268
		c12.0593-5.5342,27.1785-11.4517,42.0832-17.2805c-68.7604,20.7138-142.5037,43.5979-216.4685,66.5233
		c-35.1369,10.7943-68.5893,22.041-104.2483,32.7496c-2.8015,0.9798-5.603,1.9595-8.4047,2.9395
		c2.8017,0.9799,5.6032,1.9598,8.4047,2.9395c35.659,10.7087,69.1114,21.9553,104.2483,32.7496
		c73.9648,22.9254,147.7081,45.8094,216.4685,66.5234c-14.9047-5.8286-30.0239-11.7462-42.0832-17.2805
		c72.7354,23.8502,148.15,48.9091,198.9993,62.827c-21.4561-8.2397-44.0286-16.5515-64.2928-25.401
		c9.5477,3.0002,19.3445,6.3106,29.0558,9.6495c43.9849,14.9276,81.1628,26.6594,104.8856,32.319
		c-25.0212-9.4158-52.3304-19.2271-81.7806-31.3389c12.0347,2.5154,26.2408,6.4058,39.1182,9.7831
		c27.9741,7.4848,51.2484,12.6985,56.1147,8.2543c-7.1226-2.1092-13.8842-3.8757-21.2596-5.968
		C1010.6343,934.6859,961.7809,918.5918,906.1048,898.8425z"/>
	<path style="&st0;" d="M1140.4211,939.5906c-0.0005-0.0034-0.0007-0.0072-0.0011-0.0106
		c-0.0034-0.0004-0.0072-0.0007-0.0105-0.0011c-8.5641-0.4614-17.35-0.7383-19.8351,3.3997c4.4795,0.6615,9.1107,1.5284,13.847,2.6
		c1.0717,4.7362,1.9385,9.3676,2.6,13.847C1141.1594,956.9404,1140.8826,948.1547,1140.4211,939.5906z"/>
	<path style="&st0;" d="M1195.4199,949.99c-2.8799-18.01-6.9399-35.99-12.3799-53.03c-17.04-5.44-35.02-9.5-53.03-12.38
		c-49.99-8.01-95.38-6.94-112.02,10.08c-9.48,9.94-3.27,27.88,21.01,47.69c-10.38-15.92-1.0601-29.53,28.14-30.22
		c23.51-0.83,54.09,4.76,84.0399,16.69c11.9301,29.95,17.52,60.53,16.6901,84.04c-0.6901,29.2-14.2999,38.52-30.23,28.14
		c19.8099,24.28,37.76,30.49,47.7001,21.01C1202.36,1045.37,1203.4299,999.98,1195.4199,949.99z M1181.5601,989.78
		c-4.6101-23.3101-12.47-47.33-21.6301-69.71c-11.1899-4.58-22.7899-8.83-34.51-12.52c-11.71-3.69-23.5399-6.81-35.2-9.11
		c3.41-2.24,10.27-1.81,16.8-1.39c20.02,1.66,41.79,6.51,62.7,13.23c6.72,20.91,11.5701,42.68,13.23,62.7
		C1183.37,979.51,1183.8,986.37,1181.5601,989.78z"/>
</g>
</svg>
